<?xml version="1.0" encoding="UTF-8"?>
<svg xmlns="http://www.w3.org/2000/svg" viewBox="0 0 512 512">
 	<path id="light-bulb" fill="#fff" d="M299.8 364.4h-87.6c-6.1 0-11.1 5-11.1 11.1s5 11.1 11.1 11.1h87.6c6.1 0 11.1-5 11.1-11.1s-4.9-11.1-11.1-11.1zm-2 37h-83.6c-6.1 0-11.1 5-11.1 11.1s5 11.1 11.1 11.1h83.6c6.1 0 11.1-5 11.1-11.1s-4.9-11.1-11.1-11.1zm-83 36.6c21.7 20 23.9 24 32.5 24h16.6c8.5 0 10.5-3.7 33.3-24h-82.4zm167.8-266.5c0 75.3-64.8 117.5-64.8 176.9h-29.5c0-73.2 64.2-111.8 64.2-176.9 0-121.9-193.2-122.1-193.2 0 0 65.1 63.1 102 64.6 176.9h-29.8c0-59.4-64.8-101.6-64.8-176.9.1-161.9 253.3-162.1 253.3 0zM238.1 289.6l68.8-101h-40l19.9-69.4-71.8 99.9h43.6l-20.5 70.5z"/>
</svg>
