<?xml version="1.0" encoding="utf-8"?>
<!-- Generator: Adobe Illustrator 17.1.0, SVG Export Plug-In . SVG Version: 6.00 Build 0)  -->
<!DOCTYPE svg PUBLIC "-//W3C//DTD SVG 1.1//EN" "http://www.w3.org/Graphics/SVG/1.1/DTD/svg11.dtd">
<svg version="1.1" id="Layer_1" xmlns="http://www.w3.org/2000/svg" xmlns:xlink="http://www.w3.org/1999/xlink" x="0px" y="0px"
	 viewBox="0 0 96 96" enable-background="new 0 0 96 96" xml:space="preserve">
<path fill="#FFFFFF" d="M96,26.7c-0.3-5.2-2.7-10.2-6.3-14.2C86.1,8.4,81,5.3,75.6,4.4c-15.9,14.2-56.1,50.3-70,62.8c0,0,0,0,0,0
	c0,0,0,0,0,0L0,92.5l25.9-2.8c0,0,0,0,0,0c0,0,0,0,0,0h0c0,0,0,0,0,0C39.9,77,80.1,41,96,26.7z M18.4,74.5c-2-2-3.7-3.2-6-4.8
	l62.9-56.9c2.1,0.7,5.1,2.4,6,4.8L18.4,74.5z"/>
</svg>
