<?xml version="1.0" encoding="utf-8"?>
<!DOCTYPE svg PUBLIC "-//W3C//DTD SVG 1.1//EN" "http://www.w3.org/Graphics/SVG/1.1/DTD/svg11.dtd">
<svg version="1.1" id="Layer_1" xmlns="http://www.w3.org/2000/svg" xmlns:xlink="http://www.w3.org/1999/xlink" x="0px" y="0px"
	 width="92px" height="142.129px" viewBox="0 0 92 142.129" enable-background="new 0 0 92 142.129" xml:space="preserve">
<g id="site">
</g>
<g id="Layer_1_1_">
</g>
<g id="another">
</g>
<g id="jimmy_wales">
	<g>
		<g>
			<path fill="#C6C6C6" d="M35.004,131.641c-2.442,0-3.665,2.951-1.935,4.685c3.359,3.358,6.312,5.805,8.553,5.805h8.756
				c2.239,0,4.785-2.44,8.351-5.805c1.832-1.729,0.608-4.685-1.834-4.685H35.004z"/>
		</g>
		<g>
			<path fill="#C6C6C6" d="M61.68,125.021H30.423c-3.156,0-5.599-2.545-5.599-5.603c0-3.153,2.545-5.601,5.599-5.601H61.68
				c3.155,0,5.6,2.546,5.6,5.601C67.38,122.578,64.835,125.021,61.68,125.021z"/>
		</g>
		<g>
			<g>
				<path fill="#C6C6C6" d="M30.118,107.309c-2.749,0-5.092-2.035-5.6-4.785c0-0.203-1.121-6.516-7.433-15.981
					c-0.917-1.424-1.833-2.748-2.749-4.069C7.821,72.693,1,62.615,1,45c0-10.791,4.276-21.889,11.606-30.236
					C20.956,5.295,32.866,0.001,46,0.001c3.154,0,5.602,2.545,5.602,5.601c0,3.055-2.545,5.601-5.602,5.601
					c-12.625,0-20.565,6.006-24.941,10.995c-5.498,6.21-8.857,14.763-8.857,22.806c0,14.15,5.294,21.99,11.503,31.154
					c0.917,1.426,1.936,2.75,2.852,4.174c7.737,11.811,9.062,19.648,9.162,20.564c0.407,3.057-1.73,5.903-4.785,6.312
					C30.627,107.309,30.423,107.309,30.118,107.309z"/>
			</g>
			<g>
				<path fill="#C6C6C6" d="M61.779,107.309c-0.307,0-0.51,0-0.813-0.102c-3.054-0.406-5.19-3.359-4.784-6.414
					c0.104-0.814,1.426-8.756,9.162-20.564c0.916-1.426,1.936-2.852,2.852-4.176C74.406,66.891,79.702,59.05,79.702,44.9
					c0-7.839-3.464-16.29-9.163-22.704C64.123,15.069,55.367,11.2,46.001,11.2c-3.156,0-5.6-2.545-5.6-5.6
					c0-3.054,2.443-5.601,5.6-5.601C72.98,0,91,23.313,91,45c0,17.612-6.818,27.691-13.438,37.465
					c-0.916,1.322-1.832,2.646-2.748,4.072c-6.312,9.67-7.435,15.883-7.435,15.98C66.975,105.375,64.631,107.309,61.779,107.309z"/>
			</g>
		</g>
	</g>
	<g>
		<path fill="#C6C6C6" d="M55.876,59.764c-0.61,0-1.324-0.204-1.833-0.714L34.292,39.3c-1.018-1.019-1.018-2.647,0-3.563
			c1.018-1.019,2.646-1.019,3.562,0l19.751,19.75c1.019,1.018,1.019,2.646,0,3.562C57.1,59.561,56.484,59.764,55.876,59.764z"/>
	</g>
	<g>
		<path fill="#C6C6C6" d="M36.125,59.764c-0.61,0-1.324-0.204-1.833-0.714c-1.018-1.018-1.018-2.646,0-3.562l19.751-19.75
			c1.02-1.019,2.646-1.019,3.562,0c1.019,1.019,1.019,2.647,0,3.563L37.957,59.05C37.448,59.561,36.735,59.764,36.125,59.764z"/>
	</g>
</g>
</svg>
