<?xml version="1.0" encoding="utf-8"?>
<!DOCTYPE svg PUBLIC "-//W3C//DTD SVG 1.1//EN" "http://www.w3.org/Graphics/SVG/1.1/DTD/svg11.dtd">
<svg version="1.1" id="Layer_1" xmlns="http://www.w3.org/2000/svg" xmlns:xlink="http://www.w3.org/1999/xlink" x="0px" y="0px"
	 width="92px" height="142.068px" viewBox="0 0 92 142.068" enable-background="new 0 0 92 142.068" xml:space="preserve">
<g id="site">
</g>
<g id="Layer_1_1_">
</g>
<g id="another">
</g>
<g id="jimmy_wales">
	<g>
		<g>
			<path fill="#C6C6C6" d="M34.965,131.593c-2.44,0-3.661,2.949-1.933,4.68c3.356,3.354,6.306,5.797,8.543,5.797h8.747
				c2.236,0,4.777-2.441,8.338-5.797c1.83-1.729,0.609-4.68-1.83-4.68H34.965z"/>
		</g>
		<g>
			<path fill="#C6C6C6" d="M61.611,124.983H30.389c-3.151,0-5.593-2.543-5.593-5.594c0-3.152,2.542-5.596,5.593-5.596h31.222
				c3.15,0,5.592,2.541,5.592,5.596C67.305,122.44,64.762,124.983,61.611,124.983z"/>
		</g>
		<g>
			<g>
				<path fill="#C6C6C6" d="M30.084,107.186c-2.746,0-5.085-2.033-5.593-4.779c0-0.203-1.119-6.508-7.424-15.967
					c-0.916-1.424-1.832-2.744-2.746-4.066C7.814,72.712,1,62.54,1,45.049c0-10.776,4.271-21.862,11.594-30.201
					c8.439-9.562,20.236-14.85,33.355-14.85c3.152,0,5.592,2.542,5.592,5.593c0,3.053-2.541,5.595-5.592,5.595
					c-12.61,0-20.543,6-24.916,10.981c-5.491,6.204-8.848,14.746-8.848,22.78c0,14.135,5.288,21.966,11.492,31.12
					c0.916,1.424,1.932,2.746,2.848,4.17c7.729,11.797,9.051,19.627,9.152,20.541c0.407,3.053-1.729,5.895-4.779,6.307
					C30.593,107.186,30.389,107.186,30.084,107.186z"/>
			</g>
			<g>
				<path fill="#C6C6C6" d="M61.814,107.288c-0.309,0-0.51,0-0.814-0.102c-3.051-0.408-5.186-3.355-4.779-6.408
					c0.104-0.812,1.426-8.744,9.152-20.541c0.916-1.424,1.932-2.848,2.848-4.17c6.203-9.154,11.492-16.984,11.492-31.12
					c0-7.831-3.459-16.271-9.154-22.679c-6.404-7.118-15.148-10.982-24.507-10.982c-3.153,0-5.593-2.542-5.593-5.593
					c0-3.052,2.542-5.594,5.593-5.594C73,0.102,91,23.39,91,45.049c0,17.595-6.812,27.663-13.424,37.426
					c-0.914,1.318-1.83,2.645-2.746,4.064c-6.305,9.66-7.424,15.863-7.424,15.965C66.898,105.253,64.559,107.288,61.814,107.288z"/>
			</g>
		</g>
		<circle fill="#C6C6C6" cx="32.627" cy="42.813" r="4.576"/>
		<circle fill="#C6C6C6" cx="59.068" cy="42.813" r="4.576"/>
		<g>
			<path fill="#C6C6C6" d="M59.068,68.337c-0.609,0-1.322-0.203-1.83-0.712c-3.152-3.15-7.322-4.881-11.797-4.881
				c-4.476,0-8.645,1.729-11.797,4.881c-1.017,1.019-2.644,1.019-3.56,0c-1.017-1.017-1.017-2.644,0-3.559
				c4.17-4.169,9.56-6.407,15.458-6.407c5.795,0,11.29,2.236,15.458,6.407c1.018,1.017,1.018,2.644,0,3.559
				C60.389,68.134,59.678,68.337,59.068,68.337z"/>
		</g>
	</g>
</g>
</svg>
