<?xml version="1.0" encoding="UTF-8"?>
<svg xmlns="http://www.w3.org/2000/svg" width="92" height="142.129" viewBox="0 0 92 142.129">
	<g fill="#c8ccd1">
		<path d="M35.004 131.64c-2.442 0-3.665 2.952-1.935 4.686 3.35 3.358 6.31 5.805 8.55 5.805h8.75c2.24 0 4.784-2.44 8.35-5.8 1.832-1.73.61-4.68-1.834-4.68H35zm26.676-6.62H30.423c-3.156 0-5.6-2.544-5.6-5.602 0-3.153 2.546-5.6 5.6-5.6H61.68c3.155 0 5.6 2.545 5.6 5.6.1 3.16-2.445 5.603-5.6 5.603zm-31.562-17.71c-2.75 0-5.092-2.036-5.6-4.786 0-.203-1.12-6.516-7.433-15.98-.917-1.425-1.833-2.75-2.75-4.07C7.822 72.694 1 62.614 1 45c0-10.79 4.276-21.89 11.606-30.236C20.956 5.294 32.866 0 46 0c3.154 0 5.602 2.546 5.602 5.602 0 3.055-2.545 5.6-5.602 5.6-12.625 0-20.565 6.007-24.94 10.996-5.5 6.21-8.858 14.763-8.858 22.806 0 14.15 5.294 21.99 11.503 31.154.917 1.426 1.936 2.75 2.852 4.174 7.737 11.81 9.062 19.648 9.162 20.564.4 3.057-1.73 5.903-4.79 6.312-.31.1-.51.1-.82.1z"/>
		<path d="M61.78 107.31c-.308 0-.51 0-.814-.103-3.054-.406-5.19-3.36-4.784-6.414.104-.814 1.426-8.756 9.162-20.564.916-1.43 1.936-2.86 2.852-4.18 6.21-9.16 11.506-17 11.506-31.15 0-7.84-3.464-16.29-9.163-22.71C64.12 15.07 55.36 11.2 46 11.2c-3.155 0-5.6-2.545-5.6-5.6C40.4 2.546 42.845 0 46 0c26.98 0 45 23.313 45 45 0 17.612-6.818 27.69-13.438 37.465-.916 1.322-1.832 2.646-2.748 4.072-6.312 9.67-7.435 15.883-7.435 15.98-.41 2.858-2.75 4.792-5.6 4.792z"/>
		<path d="M55.876 59.764c-.61 0-1.324-.204-1.833-.714L34.293 39.3c-1.02-1.02-1.02-2.647 0-3.563 1.017-1.02 2.645-1.02 3.56 0l19.752 19.75c1.02 1.018 1.02 2.646 0 3.562-.505.51-1.12.71-1.73.71z"/>
		<path d="M36.125 59.764c-.61 0-1.324-.204-1.833-.714-1.018-1.018-1.018-2.646 0-3.562l19.75-19.75c1.02-1.02 2.647-1.02 3.563 0 1.02 1.02 1.02 2.647 0 3.563L37.957 59.05c-.51.51-1.222.714-1.832.714z"/>
	</g>
</svg>
