<?xml version="1.0" encoding="UTF-8"?>
<svg xmlns="http://www.w3.org/2000/svg" width="92" height="142.068" viewBox="0 0 92 142.068">
	<g fill="#c8ccd1">
		<path d="M34.965 131.593c-2.44 0-3.66 2.95-1.933 4.68 3.356 3.354 6.306 5.797 8.543 5.797h8.747c2.236 0 4.777-2.44 8.338-5.797 1.83-1.73.61-4.68-1.83-4.68H34.965zm26.645-6.61H30.39c-3.152 0-5.594-2.543-5.594-5.594 0-3.16 2.542-5.6 5.593-5.6h31.22c3.15 0 5.59 2.54 5.59 5.59.1 3.05-2.44 5.59-5.59 5.59zm-31.526-17.797c-2.746 0-5.085-2.033-5.593-4.78 0-.202-1.11-6.507-7.42-15.966-.91-1.424-1.83-2.744-2.74-4.066C7.82 72.712 1 62.54 1 45.05c0-10.777 4.27-21.863 11.594-30.202C21.034 5.286 32.83-.002 45.95-.002c3.15 0 5.59 2.542 5.59 5.593 0 3.06-2.54 5.6-5.59 5.6-12.61 0-20.544 6-24.917 10.98-5.49 6.21-8.848 14.75-8.848 22.78 0 14.14 5.288 21.97 11.492 31.12.916 1.43 1.932 2.75 2.848 4.17 7.73 11.8 9.05 19.63 9.152 20.54.407 3.06-1.73 5.9-4.78 6.31-.304.1-.508.1-.813.1z"/>
		<path d="M61.814 107.288c-.31 0-.51 0-.814-.102-3.05-.408-5.186-3.355-4.78-6.408.105-.812 1.427-8.744 9.153-20.54.916-1.425 1.932-2.85 2.848-4.17 6.21-9.155 11.5-16.985 11.5-31.12 0-7.832-3.46-16.272-9.15-22.68-6.402-7.118-15.15-10.982-24.505-10.982-3.153 0-5.593-2.542-5.593-5.593C40.46 2.64 43 .1 46.05.1 73 .1 91 23.39 91 45.05c0 17.594-6.812 27.662-13.424 37.425-.914 1.318-1.83 2.645-2.746 4.064-6.305 9.66-7.424 15.86-7.424 15.96-.508 2.75-2.847 4.78-5.592 4.78z"/>
		<circle cx="32.627" cy="42.813" r="4.576"/>
		<circle cx="59.068" cy="42.813" r="4.576"/>
		<path d="M59.068 68.337c-.61 0-1.322-.203-1.83-.712-3.152-3.15-7.322-4.88-11.797-4.88-4.47 0-8.64 1.728-11.79 4.88-1.01 1.02-2.64 1.02-3.56 0-1.01-1.017-1.01-2.644 0-3.56 4.17-4.168 9.56-6.406 15.46-6.406 5.8 0 11.29 2.23 15.46 6.4 1.02 1.01 1.02 2.64 0 3.56-.61.51-1.32.71-1.93.71z"/>
	</g>
</svg>
