<?xml version="1.0" encoding="UTF-8"?>
<svg xmlns="http://www.w3.org/2000/svg" width="13" height="13" viewBox="0 0 13 13">
 	<path fill="#222" d="M5.467 12.003c-.222 0-.333.295-.185.442.333.297.592.555.813.555h.812c.22 0 .442-.223.774-.555.19-.146.08-.442-.18-.442H5.47zm2.512-.628H5.06c-.294 0-.516-.223-.516-.518s.222-.518.517-.518h2.92c.3 0 .52.22.52.51s-.22.52-.51.52zM5.02 9.713c-.26 0-.48-.186-.517-.443 0-.037-.11-.59-.702-1.438-.07-.113-.18-.262-.25-.372-.63-.886-1.26-1.81-1.26-3.398 0-.96.41-1.958 1.076-2.733C4.138.48 5.246 0 6.506 0c.29 0 .512.222.512.517s-.22.517-.517.517c-1.18 0-1.92.554-2.32.997-.51.56-.81 1.33-.81 2.07 0 1.3.52 2 1.07 2.81.08.11.19.26.26.37.74 1.07.85 1.77.85 1.85.04.3-.15.52-.44.59h-.08zm2.955 0H7.9c-.296-.037-.48-.295-.443-.59 0-.075.145-.775.85-1.848.072-.11.184-.258.26-.37.59-.81 1.07-1.55 1.07-2.805 0-.702-.334-1.478-.853-2.068-.59-.63-1.4-.998-2.29-.998-.294 0-.516-.222-.516-.517S6.208 0 6.5 0c2.512 0 4.21 2.105 4.21 4.062 0 1.588-.627 2.51-1.256 3.398-.072.11-.183.26-.257.37-.592.886-.7 1.44-.7 1.44-.04.257-.26.443-.518.443z"/>
</svg>
