<?xml version="1.0" encoding="UTF-8"?>
<svg xmlns="http://www.w3.org/2000/svg" width="20" height="20" viewBox="0 0 20 20">
    <path fill="#fff" d="M2.459 6.685h-2.459v-1.925h2.567c1.818 0 3.637.749 4.92 2.139-.107.106-1.07 1.711-1.07 1.711-.963-1.176-2.354-1.925-3.958-1.925zm17.541 7.592l-4.277-2.672v1.711h-1.391c-1.498 0-2.996-.75-3.852-1.927 0 0-1.069 1.604-1.069 1.712 1.284 1.391 3.102 2.139 4.92 2.139h1.391v1.604l4.278-2.567zm0-8.448l-4.277-2.674v1.604h-1.391c-2.354 0-4.492 1.176-5.775 3.208l-1.926 3.103c-.963 1.391-2.46 2.246-4.171 2.246h-2.46v2.031h2.567c2.353 0 4.492-1.177 5.775-3.209l1.925-3.102c.854-1.39 2.46-2.246 4.063-2.246h1.393v1.711l4.277-2.672z"/>
</svg>
