<?xml version="1.0" encoding="UTF-8"?>
<svg xmlns="http://www.w3.org/2000/svg" width="20" height="20" viewBox="0 0 20 20">
    <path id="refresh" fill="#fff" d="M6.506 2.516c-2.58 1.57-4.039 4.263-4.151 7.067h-2.355l3.702 3.703 3.702-3.703h-2.244c.112-1.907 1.122-3.59 2.805-4.712 2.805-1.795 6.508-.897 8.303 1.907 1.795 2.804.896 6.508-1.908 8.303-2.58 1.57-5.945 1.01-7.853-1.234l-2.02 2.02c2.805 3.143 7.629 3.928 11.332 1.684 4.149-2.58 5.385-8.078 2.916-12.229-2.581-4.153-8.078-5.386-12.229-2.806z"/>
</svg>
