<?xml version="1.0" encoding="utf-8"?>
<!-- Generator: Adobe Illustrator 16.0.0, SVG Export Plug-In . SVG Version: 6.00 Build 0)  -->
<!DOCTYPE svg PUBLIC "-//W3C//DTD SVG 1.1//EN" "http://www.w3.org/Graphics/SVG/1.1/DTD/svg11.dtd">
<svg version="1.1" id="Layer_1" xmlns="http://www.w3.org/2000/svg" xmlns:xlink="http://www.w3.org/1999/xlink" x="0px" y="0px"
	 width="32px" height="32px" viewBox="0 0 32 32" enable-background="new 0 0 32 32" xml:space="preserve">
<circle fill="#6D6E70" cx="16.051" cy="10.336" r="10.337"/>
<path fill="#6D6E70" d="M22.061,21.829c0,0-1.938,1.116-6.036,1.116c-4.099,0-5.982-1.116-5.982-1.116v-8.381h12.018V21.829z"/>
<g>
	<path fill="#6D6E70" d="M10.377,23.409c0.012,0.005,1.789,0.999,5.554,0.999c3.774,0,5.604-0.998,5.622-1.01v1.824
		c-0.982,0.36-2.841,0.859-5.622,0.859c-2.756,0-4.585-0.491-5.561-0.854L10.377,23.409"/>
</g>
<path fill="#6D6E70" d="M20.5,26.9l-1.843,0.326v1.123c0,0.004,0,0.006,0,0.006c0,1.387-1.13,1.711-2.517,1.711
	c-1.371,0-2.484-0.299-2.511-1.664v-1.15l-1.843-0.329v1.411c0,0.007-0.002,0.014-0.002,0.021c0,0.016,0.002,0.027,0.002,0.043
	v0.021h0.001c0.037,2.372,1.975,3.485,4.353,3.485c2.387,0,4.331-1.127,4.354-3.51H20.5V26.9z"/>
</svg>
