<?xml version="1.0" encoding="utf-8"?>
<!-- Generator: Adobe Illustrator 16.0.0, SVG Export Plug-In . SVG Version: 6.00 Build 0)  -->
<!DOCTYPE svg PUBLIC "-//W3C//DTD SVG 1.1//EN" "http://www.w3.org/Graphics/SVG/1.1/DTD/svg11.dtd">
<svg version="1.1" id="Layer_1" xmlns="http://www.w3.org/2000/svg" xmlns:xlink="http://www.w3.org/1999/xlink" x="0px" y="0px"
	 width="32px" height="32px" viewBox="0 0 32 32" enable-background="new 0 0 32 32" xml:space="preserve">
<path fill="#FFFFFF" d="M32.05,7.51c-0.089-1.734-0.899-3.417-2.094-4.747c-1.224-1.363-2.901-2.41-4.714-2.708
	C19.938,4.814,6.511,16.863,1.868,21.023c0.006,0.004,0.011,0.009,0.016,0.011c-0.004-0.002-0.009-0.005-0.014-0.007L0,29.456
	l8.64-0.951c0,0.002,0.002,0.004,0.002,0.006c0.003-0.002,0.005-0.006,0.007-0.006l0.007-0.002c0-0.002,0-0.002-0.001-0.004
	C13.324,24.311,26.742,12.271,32.05,7.51z M6.129,23.475c-0.665-0.668-1.228-1.078-2.003-1.606L25.123,2.883
	c0.709,0.219,1.691,0.792,1.992,1.611L6.129,23.475z"/>
</svg>
