<?xml version="1.0" encoding="utf-8"?>
<!-- Generator: Adobe Illustrator 15.0.0, SVG Export Plug-In . SVG Version: 6.00 Build 0)  -->
<!DOCTYPE svg PUBLIC "-//W3C//DTD SVG 1.1//EN" "http://www.w3.org/Graphics/SVG/1.1/DTD/svg11.dtd">
<svg version="1.1" id="Layer_1" xmlns="http://www.w3.org/2000/svg" xmlns:xlink="http://www.w3.org/1999/xlink" x="0px" y="0px"
	 width="21px" height="20.999px" viewBox="295.5 385.141 21 20.999" enable-background="new 295.5 385.141 21 20.999"
	 xml:space="preserve">
<path fill="#999999" d="M312.257,385.141h-14.383v19.201c0,1.079,0.719,1.798,1.798,1.798h14.456v-19.273
	C314.126,385.716,313.335,385.141,312.257,385.141z M307.438,387.802h3.883v4.962h-3.883V387.802z M300.678,387.802h4.603v1.366
	h-4.603C300.678,389.24,300.678,387.802,300.678,387.802z M300.678,391.397h4.603v1.366h-4.603V391.397z M300.678,403.264v-1.366
	h10.643v1.366H300.678z M311.321,399.812h-10.643v-1.366h10.643V399.812L311.321,399.812z M311.321,396.288h-10.643v-1.367h10.643
	V396.288L311.321,396.288z"/>
</svg>
